<svg width="256" height="256" viewBox="0 0 256 256" fill="none" xmlns="http://www.w3.org/2000/svg" id="ansible">
    <style>
        #ansible {
            rect {
                fill: #242938
            }

            @media (prefers-color-scheme: light) {
                rect {
                    fill: #F4F2ED
                }

                path.circle {
                    fill: black
                }
            }
        }
    </style>
    <rect width="256" height="256" rx="60" fill="#242938" />
    <g clip-path="url(#clip0_4_19)">
        <path
            d="M116.475 130.606L155.538 161.4L129.656 97.5625L116.475 130.606ZM128 35C72.7563 35 28 79.7563 28 135C28 190.244 72.7563 235 128 235C183.244 235 228 190.244 228 135C228 79.7563 183.244 35 128 35ZM176.306 179.206C176.206 183.144 172.956 186.237 169.013 186.137C167.056 186.137 165.563 185.388 163.481 183.694L111.887 142.025L94.5688 185.388H79.5938L123.312 80.3438C124.356 77.7063 126.862 76.0125 129.694 76.1125C132.394 76.0125 134.937 77.675 135.881 80.3438L175.662 176.112C176.019 177.056 176.312 178.069 176.312 179.012C176.312 179.075 176.306 179.075 176.306 179.206Z"
            class="circle" fill="white" />
    </g>
    <defs>
        <clipPath id="clip0_4_19">
            <rect width="200" height="200" fill="white" transform="translate(28 35)" />
        </clipPath>
    </defs>
</svg>