<svg width="256" height="256" viewBox="0 0 256 256" fill="none" xmlns="http://www.w3.org/2000/svg" id="harbor">
    <style>
        #harbor {
            rect {
                fill: #242938
            }

            @media (prefers-color-scheme: light) {
                rect {
                    fill: #F4F2ED
                }
            }
        }
    </style>
    <rect width="256" height="256" rx="60" fill="#242938" />
    <path
        d="M44.605 128.066C44.6028 111.783 49.4595 95.8654 58.5609 82.3255C67.6622 68.7856 80.5995 58.232 95.7366 51.9992C110.874 45.7665 127.531 44.1346 143.601 47.3099C159.671 50.4852 174.433 58.3251 186.02 69.8382C197.607 81.3512 205.498 96.0203 208.695 111.99C211.892 127.96 210.253 144.514 203.983 159.558C197.713 174.601 187.095 187.459 173.472 196.506C159.848 205.553 143.831 210.381 127.446 210.381C105.477 210.381 84.408 201.709 68.8726 186.272C53.3371 170.836 44.6079 149.899 44.605 128.066Z"
        fill="white" />
    <mask id="mask0_0_1" style="mask-type:luminance" maskUnits="userSpaceOnUse" x="84" y="179" width="43" height="38">
        <path d="M124.464 196.374L86.2621 179.64L84.1309 203.535L126.144 216.796L124.464 196.374Z" fill="white" />
    </mask>
    <g mask="url(#mask0_0_1)">
        <path d="M124.464 196.374L86.2623 179.645L84.1366 203.535L126.15 216.807L124.48 196.385"
            fill="url(#paint0_linear_0_1)" />
    </g>
    <mask id="mask1_0_1" style="mask-type:luminance" maskUnits="userSpaceOnUse" x="85" y="79" width="39" height="79">
        <path
            d="M93.7411 103.944H115.193V122.133H110.101V114.391C110.101 112.905 109.507 111.48 108.45 110.429C107.393 109.379 105.959 108.789 104.464 108.789C102.969 108.789 101.535 109.379 100.478 110.429C99.4211 111.48 98.8272 112.905 98.8272 114.391V122.133H93.7355L93.7411 103.944ZM89.4563 143.761L121.286 157.702L119.094 131.025H123.262V122.133H120.173V103.944H123.262V98.7184L106.089 82.0231V80.8507C106.089 80.424 105.918 80.0146 105.615 79.7128C105.311 79.411 104.899 79.2415 104.47 79.2415C104.04 79.2415 103.628 79.411 103.325 79.7128C103.021 80.0146 102.85 80.424 102.85 80.8507V82.0231L85.6779 98.7184V103.944H88.7718V122.133H85.6779V131.047H90.5859L89.4563 143.761Z"
            fill="white" />
    </mask>
    <g mask="url(#mask1_0_1)">
        <path
            d="M93.7411 103.944H115.193V122.133H110.101V114.391C110.101 112.905 109.507 111.48 108.45 110.429C107.393 109.379 105.959 108.789 104.464 108.789C102.969 108.789 101.535 109.379 100.478 110.429C99.4211 111.48 98.8272 112.905 98.8272 114.391V122.133H93.7355L93.7411 103.944ZM89.4563 143.761L121.286 157.702L119.094 131.025H123.262V122.133H120.173V103.944H123.262V98.7184L106.089 82.0231V80.8507C106.089 80.424 105.918 80.0146 105.615 79.7128C105.311 79.411 104.899 79.2415 104.47 79.2415C104.04 79.2415 103.628 79.411 103.325 79.7128C103.021 80.0146 102.85 80.424 102.85 80.8507V82.0231L85.6779 98.7184V103.944H88.7718V122.133H85.6779V131.047H90.5859L89.473 143.766"
            fill="url(#paint1_linear_0_1)" />
    </g>
    <mask id="mask2_0_1" style="mask-type:luminance" maskUnits="userSpaceOnUse" x="87" y="158" width="37" height="23">
        <path d="M87.592 164.72L123.139 180.292L122.605 173.805L88.1262 158.708L87.592 164.72Z" fill="white" />
    </mask>
    <g mask="url(#mask2_0_1)">
        <path d="M87.5865 164.72L123.128 180.292L122.572 173.811L88.0706 158.708L87.5142 164.72"
            fill="url(#paint2_linear_0_1)" />
    </g>
    <mask id="mask3_0_1" style="mask-type:luminance" maskUnits="userSpaceOnUse" x="86" y="169" width="39" height="23">
        <path d="M86.6572 175.188L124.069 191.574L123.534 185.092L87.1914 169.177L86.6572 175.188Z" fill="white" />
    </mask>
    <g mask="url(#mask3_0_1)">
        <path d="M86.6572 175.188L124.069 191.574L123.512 185.092L87.1691 169.177L86.6127 175.188"
            fill="url(#paint3_linear_0_1)" />
    </g>
    <mask id="mask4_0_1" style="mask-type:luminance" maskUnits="userSpaceOnUse" x="88" y="148" width="35" height="22">
        <path d="M89.0556 148.24L88.5214 154.251L122.21 169.005L121.681 162.524L89.0556 148.24Z" fill="white" />
    </mask>
    <g mask="url(#mask4_0_1)">
        <path d="M89.0554 148.24L88.4989 154.257L122.21 168.989L121.653 162.507L89.0331 148.223"
            fill="url(#paint4_linear_0_1)" />
    </g>
    <path
        d="M196.621 90.379L213.832 84.8822C213.771 84.7605 213.715 84.6333 213.654 84.5172C210.749 78.8788 207.291 73.5386 203.332 68.574L187.155 76.8691C190.704 80.9419 193.823 85.365 196.465 90.0693C196.521 90.1634 196.565 90.2629 196.615 90.3624"
        fill="#696566" />
    <path
        d="M206.125 122.741L224.049 124.018C223.848 119.267 223.29 114.536 222.38 109.867L204.294 110.481C205.224 114.513 205.828 118.613 206.103 122.741"
        fill="#696566" />
    <path
        d="M128.693 206.488C85.1771 206.488 49.769 171.306 49.769 128.061C49.769 84.8158 85.1882 49.628 128.693 49.628C143.745 49.6113 158.485 53.9001 171.151 61.9822L183.7 48.9866C167.552 37.8395 148.354 31.8778 128.693 31.9042C75.3554 31.9042 31.9509 75.0386 31.9509 128.066C31.9509 181.094 75.3554 224.206 128.693 224.206C174.268 224.206 212.547 192.685 222.736 150.48L205.83 144.657C198.151 179.96 166.494 206.499 128.704 206.499"
        fill="#696566" />
    <mask id="mask5_0_1" style="mask-type:luminance" maskUnits="userSpaceOnUse" x="124" y="48" width="80" height="62">
        <path
            d="M202.311 65.739C197.382 59.8318 191.78 54.5235 185.618 49.9229C184.737 49.2651 183.833 48.6297 182.93 48L170.254 61.1904L124.052 109.336L187.688 76.3431L204 67.9093C203.433 67.1728 202.889 66.4362 202.311 65.739Z"
            fill="white" />
    </mask>
    <g mask="url(#mask5_0_1)">
        <path
            d="M202.311 65.739C197.382 59.8318 191.78 54.5235 185.618 49.9229C184.737 49.2651 183.833 48.6297 182.93 48L170.254 61.1904L124.052 109.336L187.688 76.3431L204 67.9093C203.439 67.1953 202.878 66.4587 202.317 65.7615"
            fill="url(#paint5_linear_0_1)" />
    </g>
    <mask id="mask6_0_1" style="mask-type:luminance" maskUnits="userSpaceOnUse" x="124" y="116" width="100" height="34">
        <path
            d="M223.983 127.146C223.983 126.056 223.906 124.966 223.861 123.914L205.972 122.655L124.069 116.89L204.417 144.251L221.306 150C221.356 149.804 221.412 149.613 221.462 149.411C223.144 142.361 223.995 135.144 224 127.903V127.157L223.983 127.146Z"
            fill="white" />
    </mask>
    <g mask="url(#mask6_0_1)">
        <path
            d="M223.983 127.146C223.983 126.056 223.906 124.966 223.861 123.914L205.972 122.655L124.069 116.89L204.417 144.251L221.306 150C221.356 149.804 221.412 149.613 221.462 149.411C223.144 142.361 223.995 135.144 224 127.903V127.157"
            fill="url(#paint6_linear_0_1)" />
    </g>
    <mask id="mask7_0_1" style="mask-type:luminance" maskUnits="userSpaceOnUse" x="125" y="84" width="98" height="30">
        <path
            d="M221.534 105.73C219.792 98.5068 217.207 91.51 213.832 84.8822L196.615 90.379L125.309 113.135L204.328 110.464L222.413 109.85C222.135 108.479 221.862 107.096 221.534 105.73Z"
            fill="white" />
    </mask>
    <g mask="url(#mask7_0_1)">
        <path
            d="M221.534 105.73C219.792 98.5068 217.207 91.51 213.832 84.8822L196.615 90.379L125.309 113.135L204.328 110.464L222.413 109.85C222.146 108.462 221.857 107.085 221.545 105.714"
            fill="url(#paint7_linear_0_1)" />
    </g>
    <defs>
        <linearGradient id="paint0_linear_0_1" x1="84.3646" y1="197.481" x2="126.359" y2="197.481"
            gradientUnits="userSpaceOnUse">
            <stop stop-color="#60B932" />
            <stop offset="0.28" stop-color="#60B932" />
            <stop offset="1" stop-color="#367C34" />
        </linearGradient>
        <linearGradient id="paint1_linear_0_1" x1="84.9164" y1="120.973" x2="122.619" y2="120.973"
            gradientUnits="userSpaceOnUse">
            <stop stop-color="#60B932" />
            <stop offset="0.28" stop-color="#60B932" />
            <stop offset="1" stop-color="#367C34" />
        </linearGradient>
        <linearGradient id="paint2_linear_0_1" x1="87.6978" y1="169.224" x2="123.234" y2="169.224"
            gradientUnits="userSpaceOnUse">
            <stop stop-color="#60B932" />
            <stop offset="0.28" stop-color="#60B932" />
            <stop offset="1" stop-color="#367C34" />
        </linearGradient>
        <linearGradient id="paint3_linear_0_1" x1="87.1063" y1="178.816" x2="124.505" y2="178.816"
            gradientUnits="userSpaceOnUse">
            <stop stop-color="#60B932" />
            <stop offset="0.28" stop-color="#60B932" />
            <stop offset="1" stop-color="#367C34" />
        </linearGradient>
        <linearGradient id="paint4_linear_0_1" x1="88.2107" y1="159.629" x2="121.884" y2="159.629"
            gradientUnits="userSpaceOnUse">
            <stop stop-color="#60B932" />
            <stop offset="0.28" stop-color="#60B932" />
            <stop offset="1" stop-color="#367C34" />
        </linearGradient>
        <linearGradient id="paint5_linear_0_1" x1="126.082" y1="108.644" x2="200.098" y2="53.945"
            gradientUnits="userSpaceOnUse">
            <stop stop-color="#4596D8" />
            <stop offset="0.2" stop-color="#4596D8" />
            <stop offset="1" stop-color="white" />
        </linearGradient>
        <linearGradient id="paint6_linear_0_1" x1="123.393" y1="125.447" x2="228.224" y2="147.263"
            gradientUnits="userSpaceOnUse">
            <stop stop-color="#4194D7" />
            <stop offset="0.2" stop-color="#4194D7" />
            <stop offset="1" stop-color="white" />
        </linearGradient>
        <linearGradient id="paint7_linear_0_1" x1="121.992" y1="122.086" x2="218.854" y2="104.496"
            gradientUnits="userSpaceOnUse">
            <stop stop-color="#4194D7" />
            <stop offset="0.33" stop-color="#4496D8" />
            <stop offset="1" stop-color="white" />
        </linearGradient>
    </defs>
</svg>