<svg width="256" height="256" viewBox="0 0 256 256" fill="none" xmlns="http://www.w3.org/2000/svg" id="tistory">
    <style>
        #tistory {
            rect {
                fill: #242938
            }

            @media (prefers-color-scheme: light) {
                rect {
                    fill: #F4F2ED
                }
            }
        }
    </style>
    <rect width="256" height="256" rx="60" fill="#242938" />
    <g clip-path="url(#clip0_3_13)">
        <path fill-rule="evenodd" clip-rule="evenodd"
            d="M228 128C228 183.228 183.228 228 128 228C72.772 228 28 183.228 28 128C28 72.772 72.772 28 128 28C183.228 28 228 72.772 228 128Z"
            fill="#FF5A4A" />
        <path fill-rule="evenodd" clip-rule="evenodd"
            d="M130.176 86.696C127.293 86.696 124.528 87.8412 122.49 89.8798C120.451 91.9183 119.306 94.6831 119.306 97.566C119.306 100.449 120.451 103.214 122.49 105.252C124.528 107.291 127.293 108.436 130.176 108.436C133.059 108.436 135.824 107.291 137.862 105.252C139.901 103.214 141.046 100.449 141.046 97.566C141.046 94.6831 139.901 91.9183 137.862 89.8798C135.824 87.8412 133.059 86.696 130.176 86.696ZM95.392 86.696C92.5091 86.696 89.7442 87.8412 87.7057 89.8798C85.6672 91.9183 84.522 94.6831 84.522 97.566C84.522 100.449 85.6672 103.214 87.7057 105.252C89.7442 107.291 92.5091 108.436 95.392 108.436C98.2749 108.436 101.04 107.291 103.078 105.252C105.117 103.214 106.262 100.449 106.262 97.566C106.262 94.6831 105.117 91.9183 103.078 89.8798C101.04 87.8412 98.2749 86.696 95.392 86.696ZM164.96 86.696C163.515 86.6683 162.079 86.929 160.736 87.4628C159.393 87.9966 158.17 88.7928 157.138 89.805C156.106 90.8171 155.287 92.0247 154.727 93.3573C154.168 94.6899 153.879 96.1207 153.879 97.566C153.879 99.0113 154.168 100.442 154.727 101.775C155.287 103.107 156.106 104.315 157.138 105.327C158.17 106.339 159.393 107.135 160.736 107.669C162.079 108.203 163.515 108.464 164.96 108.436C167.807 108.381 170.519 107.212 172.512 105.18C174.506 103.147 175.623 100.413 175.623 97.566C175.623 94.7187 174.506 91.985 172.512 89.9524C170.519 87.9198 167.807 86.7506 164.96 86.696ZM130.176 121.48C128.731 121.452 127.295 121.713 125.952 122.247C124.609 122.781 123.386 123.577 122.354 124.589C121.322 125.601 120.503 126.809 119.943 128.141C119.384 129.474 119.095 130.905 119.095 132.35C119.095 133.795 119.384 135.226 119.943 136.559C120.503 137.891 121.322 139.099 122.354 140.111C123.386 141.123 124.609 141.919 125.952 142.453C127.295 142.987 128.731 143.248 130.176 143.22C133.023 143.165 135.735 141.996 137.728 139.964C139.722 137.931 140.839 135.197 140.839 132.35C140.839 129.503 139.722 126.769 137.728 124.736C135.735 122.704 133.023 121.535 130.176 121.48ZM130.176 156.26C127.293 156.26 124.527 157.405 122.488 159.444C120.449 161.483 119.304 164.249 119.304 167.132C119.304 170.015 120.449 172.781 122.488 174.82C124.527 176.859 127.293 178.004 130.176 178.004C133.059 178.004 135.825 176.859 137.864 174.82C139.903 172.781 141.048 170.015 141.048 167.132C141.048 164.249 139.903 161.483 137.864 159.444C135.825 157.405 133.059 156.26 130.176 156.26Z"
            fill="white" />
    </g>
    <defs>
        <clipPath id="clip0_3_13">
            <rect width="200" height="200" fill="white" transform="translate(28 28)" />
        </clipPath>
    </defs>
</svg>